PathFileType	4	(X/Y/Z)	C:/Users/beibeiliu/ov580/test_trc/User2\sequence.7_training_dense_right.trc
DataRate	CameraRate	NumFrames	NumMarkers	Units	OrigDataRate	OrigDataStartFrame	OrigNumFrames
120	120	12	19	mm	120	170	338
Frame#	Time	ThumbCMC			ThumbMCP			ThumbIP			ThumbTip			IndexMCP			IndexPIP			IndexTip			MiddleMCP			MiddlePIP			MiddleTip			RingMCP			RingPIP			RingTip			PinkyMCP			PinkyPIP			PinkyTip			BackHand1			BackHand2			BackHand3	
		X0	Y0	Z0	X1	Y1	Z1	X2	Y2	Z2	X3	Y3	Z3	X4	Y4	Z4	X5	Y5	Z5	X6	Y6	Z6	X7	Y7	Z7	X8	Y8	Z8	X9	Y9	Z9	X10	Y10	Z10	X11	Y11	Z11	X12	Y12	Z12	X13	Y13	Z13	X14	Y14	Z14	X15	Y15	Z15	X16	Y16	Z16	X17	Y17	Z17	X18	Y18	Z18	
169	1.40833	76.2116	23.7612	102.212	47.3133	17.0005	89.4458	20.4441	9.94487	73.1239	-3.85972	3.01447	62.9411	46.4697	-16.1089	32.7853	44.6307	-38.7262	50.598	60.5852	-17.9977	74.2126	63.3931	-23.9752	26.4442	61.9456	-48.2249	56.4507	78.4615	-18.1068	77.5348	84.3687	-38.493	32.6678	82.8778	-48.0611	64.4412	93.1482	-13.0947	71.8125	102.683	-45.4114	38.7689	98.3734	-45.9295	68.395	105.531	-10.7797	76.0586	117.747	14.3958	39.2872	134.888	28.0546	72.226	98.8954	34.6396	71.6759	
170	1.41667	71.3755	30.4014	100.317	41.1518	27.5903	93.2531	10.2789	23.9897	75.1344	-7.1121	16.6718	68.497	37.9256	-4.61343	38.4457	34.1221	-30.2371	56.277	55.5328	-4.7108	78.4034	55.6203	-21.4807	32.058	50.1863	-40.118	64.3997	71.2886	-10.575	81.2698	70.317	-34.3278	39.2501	69.109	-44.9606	67.4389	86.6718	-10.8786	77.4968	89.5546	-41.5503	43.7743	84.6632	-38.8865	77.2425	101.066	-8.91896	81.4497	110.772	11.8079	43.0102	130.798	27.2904	71.2464	97.1197	37.4238	72.689	
171	1.425	68.0291	42.246	97.8007	43.2189	39.257	88.5345	12.21	37.6645	69.7666	-10.1338	36.3144	63.3306	31.5161	2.83732	37.9925	26.0433	-19.189	60.802	49.1304	3.41117	79.4114	45.3258	-17.6363	35.0585	41.7113	-32.791	67.2048	64.8766	-4.11167	84.9553	63.8187	-32.4591	42.2955	56.6607	-35.1277	74.4651	80.9782	-6.27717	79.9396	76.2147	-41.6553	49.5089	71.971	-38.0341	80.3303	92.0742	-7.01133	85.3308	107.744	10.9265	46.0382	129.224	21.4467	69.958	95.4693	43.3917	70.1123	
172	1.43333	72.6451	48.7999	89.1382	45.7168	52.0186	78.0284	14.5673	56.4306	58.7924	-5.866	55.493	47.813	32.0193	12.2533	32.9403	18.7471	-4.25416	59.9546	46.6256	14.0292	77.6638	40.5533	-9.5551	33.49	29.3056	-18.5079	67.8895	58.1545	1.28313	83.8442	52.5747	-28.9867	45.2648	46.2147	-31.0955	74.1456	70.3007	-2.17475	80.5681	71.2961	-41.8327	52.3769	61.8102	-32.7323	85.9707	83.3875	-6.36945	85.578	107.145	4.04987	45.7152	128.054	16.3153	71.1051	102.457	38.9749	63.5866	
173	1.44167	79.3994	52.6956	80.3053	53.9115	58.9053	64.9137	25.89	65.9794	41.7008	4.60187	68.6677	29.7911	33.0756	13.2452	25.1986	18.3516	1.88089	50.5685	46.9596	16.1981	71.0902	42.04	-11.0096	29.5219	24.2967	-11.6105	61.5067	55.2104	8.98901	79.5143	49.553	-26.9032	42.8242	37.557	-21.4261	71.1014	68.3183	-0.145741	78.2344	62.9892	-40.8492	54.4529	49.5906	-26.9162	81.8832	75.7703	-4.46606	87.8719	107.644	-2.42763	49.3994	130.862	9.3107	73.3691	104.207	38.3195	57.5863	
174	1.45	84.644	53.8434	72.1915	60.7475	59.5161	49.7649	38.2484	65.212	29.3521	17.8056	71.4259	13.6907	39.1381	9.68554	16.7816	19.6751	5.99192	41.1017	47.8009	19.5518	64.0933	46.2217	-14.2568	24.6134	24.4061	-11.4969	52.1538	51.2947	12.4009	73.9674	48.3785	-29.7486	39.2819	35.0146	-18.86	69.2394	66.1965	-2.46918	76.8995	56.9436	-40.8081	53.7648	44.1624	-25.1105	79.1549	72.5858	-5.95826	83.208	109.722	-10.5794	48.0932	129.749	-0.345387	77.0048	109.838	29.3335	55.7881	
175	1.45833	89.2878	48.7341	61.4165	68.6576	55.3366	37.5325	48.1428	60.1321	11.0469	31.1344	59.8948	-1.6517	48.5598	1.22093	9.38471	23.696	1.07343	30.9893	47.9722	19.427	54.6961	49.7895	-18.7065	18.141	25.0515	-10.4045	47.3306	52.9433	4.96765	68.0116	47.9481	-35.503	36.4506	33.1759	-21.0619	60.1553	60.2031	-5.00456	70.8714	52.9233	-45.4249	52.6219	42.0686	-23.6071	73.1834	68.9081	-9.21208	83.5162	112.664	-21.2025	51.9033	127.845	-3.71599	78.1255	115.228	19.1592	49.5798	
176	1.46667	93.7169	41.1098	55.0409	75.4596	46.3535	29.1687	55.6307	49.552	-0.670937	39.2928	46.5047	-15.636	53.26	-11.4192	4.46268	27.5877	-4.87356	22.2567	46.8602	12.1551	46.4902	51.7695	-30.5987	15.3576	28.1443	-18.1876	39.3392	55.3311	0.814379	61.7649	49.4187	-40.746	31.309	32.876	-27.8429	50.7954	63.6283	-8.99505	67.5756	56.2213	-51.4989	50.2092	41.3408	-32.0669	71.7905	67.9809	-15.5967	80.3308	110.808	-30.5783	49.3961	130.404	-11.449	78.0995	116.409	10.7985	47.801	
177	1.475	96.7067	35.4322	49.7551	77.6469	38.622	23.4743	59.8781	31.9129	-5.76013	43.1991	37.7927	-24.0974	57.701	-19.2976	-1.52607	33.1504	-16.8546	20.3245	51.0243	2.78674	41.8568	60.4525	-41.3492	13.9826	31.2094	-24.9904	34.2958	58.6194	-2.84661	56.6714	55.5098	-54.1234	34.1013	35.5185	-36.9493	51.7572	63.4529	-14.6794	64.4219	60.6021	-61.1111	52.8561	43.1168	-36.9557	65.0201	72.3266	-19.9539	72.029	116.854	-35.3151	52.6635	133.279	-18.8661	78.7345	122.516	4.34943	45.613	
178	1.48333	97.8922	25.4974	48.786	77.1059	25.275	19.0382	59.0545	24.5985	-9.22528	43.6577	22.8956	-26.6935	64.0087	-29.4379	-1.20846	34.8882	-28.0492	16.1322	53.7493	-4.94979	40.0908	62.6653	-49.8361	14.3467	33.5131	-37.6743	32.1403	60.4676	-10.6445	54.4683	55.9446	-60.0979	33.1719	38.3476	-46.1648	53.477	64.2146	-23.0584	65.1183	64.882	-66.6452	51.5523	45.8828	-43.5469	65.3368	71.8452	-26.3323	75.1041	116.696	-42.7392	52.3383	134.328	-26.2053	77.1789	122.08	-6.28588	45.7037	
179	1.49167	95.6085	18.0642	45.8124	75.0208	15.7173	23.4868	55.9735	10.5518	-1.24708	39.2013	5.79293	-20.3633	60.7814	-43.608	2.49083	35.1876	-35.4797	18.4346	53.6805	-19.3748	42.2233	65.0203	-59.7418	16.7737	36.0191	-51.1679	37.8723	57.9114	-22.4899	58.4733	60.2162	-71.4536	39.395	40.8034	-50.8811	54.9103	68.4888	-28.6017	65.6369	63.9036	-72.988	55.0736	49.2032	-51.3521	68.8517	77.3549	-32.736	76.7022	119.796	-49.728	55.5166	135.852	-29.2449	80.0084	123.508	-10.0088	45.341	
180	1.5	91.8585	12.2869	52.1254	68.6276	11.3382	30.332	47.9812	-1.79672	3.85916	28.9486	-4.01534	-12.782	63.3895	-48.3682	8.6671	35.7815	-47.8401	28.9564	54.3861	-23.0074	47.1612	62.3717	-66.5395	23.5624	36.2762	-56.5165	44.7313	58.8007	-28.9815	64.8991	62.8947	-74.2498	42.2375	44.0446	-57.9954	66.0414	67.9121	-35.088	72.2441	71.8006	-80.9455	61.4817	53.0166	-57.8837	78.2197	80.7336	-40.063	82.7935	121.518	-56.0117	54.7532	139.971	-29.8128	80.4442	122.738	-12.6073	47.2233	
